<svg width="77" height="89" viewBox="0 0 77 89" fill="none" xmlns="http://www.w3.org/2000/svg">
<path fill-rule="evenodd" clip-rule="evenodd" d="M2.5 1.52588e-05C1.11929 1.52588e-05 0 1.1193 0 2.50002V66C0 66.9038 0.487777 67.7372 1.27576 68.1797L37.7758 88.6797C38.5453 89.112 39.4858 89.1064 40.2502 88.665L75.7502 68.165C76.5236 67.7184 77 66.8931 77 66V2.50002C77 1.1193 75.8807 1.52588e-05 74.5 1.52588e-05H2.5ZM5 64.5368V5.00002H72V64.5568L38.9828 83.623L5 64.5368ZM13.5 22.5C12.1193 22.5 11 23.6193 11 25V59.5C11 60.3914 11.4746 61.2154 12.2457 61.6626L37.2457 76.1626C38.0214 76.6125 38.9786 76.6125 39.7543 76.1626L64.7543 61.6626C65.5254 61.2154 66 60.3914 66 59.5V45H61V58.0599L38.5 71.1099L16 58.0599V27.5H49.5V22.5H13.5ZM27 51.5585V39H22V53.0102C22 53.9079 22.4812 54.7366 23.2608 55.1815L37.2608 63.1713C38.0288 63.6096 38.9712 63.6096 39.7392 63.1713L53.7392 55.1815L51.2608 50.8389L38.5 58.1215L27 51.5585ZM21.5 15.5H61V33H66V13C66 11.6193 64.8807 10.5 63.5 10.5H21.5V15.5Z" fill="url(#paint0_linear)"/>
<defs>
<linearGradient id="paint0_linear" x1="0.0481058" y1="30.9069" x2="81.2819" y2="37.2164" gradientUnits="userSpaceOnUse">
<stop stop-color="#F9D3B4"/>
<stop offset="1" stop-color="#F9D3B4" stop-opacity="0"/>
</linearGradient>
</defs>
</svg>
